<svg t="1635492816911" class="icon" viewBox="0 0 1024 1024" version="1.1" xmlns="http://www.w3.org/2000/svg" p-id="14121" width="20" height="20">
	<path d="M672 172.8l32-64c12.8-19.2-6.4-44.8-25.6-44.8H345.6c-19.2 0-38.4 25.6-25.6 44.8l32 64c6.4 12.8 12.8 19.2 25.6 19.2H640c19.2 0 25.6-6.4 32-19.2z" fill="#EAA13A" p-id="14122">
	</path>
	<path d="M857.6 0c-12.8 0-32 6.4-38.4 19.2l-108.8 217.6c0 12.8-12.8 19.2-25.6 19.2H339.2c-12.8 0-25.6-6.4-25.6-19.2L204.8 19.2C198.4 6.4 179.2 0 166.4 0 108.8 12.8 64 64 64 128v864c0 19.2 12.8 32 32 32h832c19.2 0 32-12.8 32-32V128c0-64-44.8-115.2-102.4-128z m-140.8 678.4l-224 224c-12.8 12.8-32 12.8-44.8 0L313.6 768c-12.8-12.8-12.8-32 0-44.8s32-12.8 44.8 0l115.2 115.2 204.8-204.8c12.8-12.8 32-12.8 44.8 0 6.4 12.8 6.4 38.4-6.4 44.8z m19.2-102.4h-448c-19.2 0-32-12.8-32-32s12.8-32 32-32h448c19.2 0 32 12.8 32 32s-12.8 32-32 32z m0-128h-448c-19.2 0-32-12.8-32-32s12.8-32 32-32h448c19.2 0 32 12.8 32 32s-12.8 32-32 32z" fill="#EAA13A" p-id="14123">
	</path>
</svg>
