<svg xmlns:xlink="http://www.w3.org/1999/xlink" xmlns="http://www.w3.org/2000/svg" version="1.1" viewBox="0 0 1240 639" height="639px" width="1240px">
    <title>森林</title>
    <defs>
        <polygon points="0.43779461 0.34640444 286.191439 0.34640444 286.191439 567.127409 0.43779461 567.127409" id="path-1"></polygon>
    </defs>
    <g fill-rule="evenodd" fill="none" stroke-width="1" stroke="none" id="Page-1">
        <g transform="translate(-1730.000000, -345.000000)" id="背景">
            <g transform="translate(1737.000000, 345.000000)" id="森林">
                <path fill="#C3E4FF" id="Fill-1" d="M1128.0133,380.786375 C1128.0133,460.942264 1075.70518,505.659928 1007.57516,505.659928 C939.444433,505.659928 887.136307,460.942264 887.136307,380.786375 C887.136307,212.020931 964.00721,17.4606033 1007.57516,17.4606033 C1051.1424,17.4606033 1128.0133,212.020931 1128.0133,380.786375"></path>
                <line stroke-linecap="square" stroke-width="10.5" stroke="#E8F6FF" id="Stroke-3" y2="631.527835" x2="1007.57495" y1="261.560195" x1="1007.57495"></line>
                <line stroke-linecap="square" stroke-width="7" stroke="#E8F6FF" id="Stroke-5" y2="425.197944" x2="1067.23973" y1="451.827698" x1="1040.61122"></line>
                <line stroke-linecap="square" stroke-width="7" stroke="#E8F6FF" id="Stroke-7" y2="275.078436" x2="1067.23973" y1="301.70749" x1="1040.61122"></line>
                <path fill="#E8F6FF" id="Fill-9" d="M970.214208,339.039532 C970.214208,431.01166 895.659558,505.569093 803.692424,505.569093 C711.724591,505.569093 637.169941,431.01166 637.169941,339.039532 C637.169941,247.068103 711.724591,172.509971 803.692424,172.509971 C895.659558,172.509971 970.214208,247.068103 970.214208,339.039532"></path>
                <line stroke-linecap="square" stroke-width="10.5" stroke="#AAD5FF" id="Stroke-11" y2="631.526856" x2="803.692564" y1="306.752749" x1="803.692564"></line>
                <line stroke-linecap="square" stroke-width="8.4" stroke="#AAD5FF" id="Stroke-13" y2="425.841417" x2="869.804298" y1="452.47117" x1="843.175788"></line>
                <line stroke-linecap="square" stroke-width="8.4" stroke="#AAD5FF" id="Stroke-15" y2="306.443364" x2="869.804298" y1="333.072418" x1="843.175788"></line>
                <line stroke-linecap="square" stroke-width="8.4" stroke="#AAD5FF" id="Stroke-17" y2="368.866214" x2="737.580061" y1="395.495968" x1="764.208571"></line>
                <line stroke-linecap="square" stroke-width="8.4" stroke="#AAD5FF" id="Stroke-19" y2="309.167013" x2="737.580061" y1="335.796766" x1="764.208571"></line>
                <path fill="#E8F6FF" id="Fill-21" d="M572.317381,473.650898 C572.317381,552.946023 520.541084,588.531207 456.924605,588.531207 C393.315124,588.531207 341.538826,552.946023 341.538826,473.650898 C341.538826,325.942645 404.511512,188.003697 456.924605,188.003697 C509.344695,188.003697 572.317381,325.942645 572.317381,473.650898"></path>
                <line stroke-linecap="square" stroke-width="10.5" stroke="#C3E4FF" id="Stroke-23" y2="631.526926" x2="456.928104" y1="345.269493" x1="456.928104"></line>
                <line stroke-linecap="square" stroke-width="7" stroke="#C3E4FF" id="Stroke-25" y2="478.272563" x2="509.383323" y1="504.902317" x1="482.755512"></line>
                <line stroke-linecap="square" stroke-width="7" stroke="#C3E4FF" id="Stroke-27" y2="350.476127" x2="509.383323" y1="377.105881" x1="482.755512"></line>
                <line stroke-linecap="square" stroke-width="7" stroke="#C3E4FF" id="Stroke-29" y2="477.936935" x2="408.257964" y1="504.921491" x1="435.24056"></line>
                <line stroke-linecap="square" stroke-width="7" stroke="#C3E4FF" id="Stroke-31" y2="414.863055" x2="406.365005" y1="441.846911" x1="433.3476"></line>
                <path fill="#C3E4FF" id="Fill-33" d="M954.021011,629.950471 L653.768167,631.527835 C636.629296,609.752642 596.721169,555.224385 612.786587,539.114129 C623.355278,528.516952 655.03126,562.623444 663.583201,552.388767 C672.135142,542.161788 615.973359,478.403077 630.233359,469.416856 C655.365752,453.582324 736.230966,567.229573 746.668099,558.083096 C757.641959,548.464949 706.072795,481.634785 724.242433,474.554838 C745.399409,466.314611 801.414939,568.513719 817.596519,558.083096 C826.075684,552.613405 809.615594,519.294196 821.851147,513.600567 C843.146677,503.678004 878.682614,599.914056 893.79074,591.340022 C900.935436,587.277642 892.898528,573.373178 903.611372,569.913333 C916.703449,565.692097 943.075842,610.206117 954.021011,629.950471"></path>
                <path fill="#C3E4FF" id="Fill-35" d="M1097.08517,591.497968 C1096.64431,592.086506 1083.31291,609.875598 1081.64115,626.258079 L1058.20501,626.258079 C1069.26914,604.269445 1096.47637,591.771593 1097.08517,591.497968"></path>
                <path fill="#D6EEFF" id="Fill-37" d="M56.3582099,594.399018 C56.7990677,594.986856 70.1297675,612.775948 71.802228,629.158429 L95.2376682,629.158429 C84.174237,607.170495 56.9670135,594.671943 56.3582099,594.399018"></path>
                <path fill="#D6EEFF" id="Fill-39" d="M565.864273,594.911626 C566.305131,595.499464 579.635831,613.288557 581.308291,629.671038 L604.743731,629.671038 C593.6803,607.683103 566.473077,595.184551 565.864273,594.911626"></path>
                <path fill="#D6EEFF" id="Fill-41" d="M1174.17174,605.816718 C1173.86454,606.236602 1167.11102,615.23612 1162.58348,626.258079 L1145.61396,626.258079 C1158.01396,613.234672 1173.71059,606.018962 1174.17174,605.816718"></path>
                <path fill="#D6EEFF" id="Fill-43" d="M206.469377,629.159059 L181.641386,629.159059 C181.495833,611.322379 172.341386,588.101385 172.341386,588.101385 C172.341386,588.101385 199.583598,610.348248 206.469377,629.159059"></path>
                <path fill="#D6EEFF" id="Fill-45" d="M213.928761,629.159059 C219.929325,616.458263 220.289709,606.226385 220.289709,606.226385 C220.289709,606.226385 232.06691,619.026554 237.084291,629.159059 L213.928761,629.159059 Z"></path>
                <path fill="#D6EEFF" id="Fill-47" d="M1016.2469,525.394274 C1015.89701,526.471976 996.519562,579.92883 994.648366,626.258149 L963.35586,626.258149 C965.221458,605.336721 955.891368,580.07229 955.891368,580.07229 C955.891368,580.07229 972.542497,592.847966 976.848208,611.078637 C976.848208,611.078637 989.76744,552.962469 1016.2469,525.394274"></path>
                <path fill="#D6EEFF" id="Fill-49" d="M1044.29392,582.652688 C1044.29392,582.652688 1025.98783,606.949986 1021.0964,626.258359 L1004.0709,626.258359 C1009.87902,614.339947 1023.81853,590.175613 1044.29392,582.652688"></path>
                <path fill="#E8F6FF" id="Fill-51" d="M1192.08023,513.69847 C1192.08023,554.405541 1172.68668,591.377741 1128.77795,591.377741 C1084.86851,591.377741 1065.47497,554.405541 1065.47497,513.69847 C1065.47497,465.945743 1098.65547,418.460343 1128.77795,418.460343 C1158.89973,418.460343 1192.08023,465.945743 1192.08023,513.69847"></path>
                <line stroke-linecap="square" stroke-width="10.5" stroke="#D6EEFF" id="Stroke-53" y2="631.527975" x2="1128.77802" y1="509.897329" x1="1128.77802"></line>
                <line stroke-linecap="square" stroke-width="6.3" stroke="#D6EEFF" id="Stroke-55" y2="505.660068" x2="1168.80168" y1="523.513542" x1="1150.64393"></line>
                <line stroke-linecap="square" stroke-width="6.3" stroke="#D6EEFF" id="Stroke-57" y2="522.149619" x2="1086.76728" y1="542.174595" x1="1108.94243"></line>
                <g transform="translate(93.769752, 0.000000)" id="Group-61">
                    <mask fill="white" id="mask-2">
                        <use xlink:href="#path-1"></use>
                    </mask>
                    <g id="Clip-60"></g>
                    <path mask="url(#mask-2)" fill="#C3E4FF" id="Fill-59" d="M31.5066366,324.343586 C27.0777652,311.082244 2.80259594,313.327225 2.79909707,276.348726 C2.7927991,220.670685 79.4691648,227.025632 83.9904063,185.074305 C88.5123476,143.122978 39.2412415,144.125801 37.7157336,108.742162 C36.1902257,73.3578234 73.6554402,0.346264479 130.498804,0.346264479 C175.320045,0.346264479 138.196321,56.6821236 174.369752,81.8751737 C210.542483,107.068224 251.857156,74.7931274 272.30386,114.409199 C300.469074,168.978745 228.449007,234.515666 235.554515,276.348726 C242.660023,318.182486 284.879503,308.291414 286.171287,354.256134 C287.46377,400.221554 226.134153,408.310623 231.91219,447.72515 C235.554515,472.571096 274.366795,464.275584 276.403138,513.266969 C278.126682,554.747326 144.772799,606.073967 44.5980135,521.664653 C-55.5774718,437.256737 48.4110835,374.958523 31.5066366,324.343586"></path>
                </g>
                <line stroke-linecap="square" stroke-width="10.5" stroke="#E8F6FF" id="Stroke-62" y2="631.526856" x2="234.985178" y1="223.870413" x1="234.985178"></line>
                <line stroke-linecap="square" stroke-width="8.4" stroke="#E8F6FF" id="Stroke-64" y2="457.906431" x2="301.172767" y1="484.535485" x1="274.544257"></line>
                <line stroke-linecap="square" stroke-width="8.4" stroke="#E8F6FF" id="Stroke-66" y2="314.736146" x2="293.056016" y1="341.3652" x1="266.428205"></line>
                <line stroke-linecap="square" stroke-width="8.4" stroke="#E8F6FF" id="Stroke-68" y2="243.150444" x2="293.056016" y1="269.780198" x1="266.428205"></line>
                <line stroke-linecap="square" stroke-width="8.4" stroke="#E8F6FF" id="Stroke-70" y2="243.150444" x2="169.935352" y1="269.780198" x1="196.563163"></line>
                <path stroke-linecap="square" stroke-width="6.3" stroke="#AAD5FF" id="Stroke-72" d="M342.121388,627.521651 C342.121388,627.521651 318.436828,574.288036 282.694458,548.924932"></path>
                <path stroke-linecap="square" stroke-width="6.3" stroke="#AAD5FF" id="Stroke-74" d="M354.02063,629.159059 C354.02063,629.159059 350.14458,548.611979 379.428034,519.069628"></path>
                <path fill="#AAD5FF" id="Fill-76" d="M357.299772,519.069348 C357.299772,529.052794 365.392661,537.146062 375.376341,537.146062 C385.359321,537.146062 393.45221,529.052794 393.45221,519.069348 C393.45221,509.085203 385.359321,500.991935 375.376341,500.991935 C365.392661,500.991935 357.299772,509.085203 357.299772,519.069348"></path>
                <path fill="#AAD5FF" id="Fill-78" d="M271.411368,556.611542 C271.411368,566.595688 279.504257,574.688255 289.487937,574.688255 C299.470916,574.688255 307.563806,566.595688 307.563806,556.611542 C307.563806,546.627396 299.470916,538.534129 289.487937,538.534129 C279.504257,538.534129 271.411368,546.627396 271.411368,556.611542"></path>
                <path stroke-linecap="square" stroke-width="6.3" stroke="#AAD5FF" id="Stroke-80" d="M679.501036,624.710806 C679.501036,624.710806 676.763519,588.223571 697.165438,545.573837"></path>
                <path stroke-linecap="square" stroke-width="6.3" stroke="#AAD5FF" id="Stroke-82" d="M668.08191,628.438118 C668.08191,628.438118 650.609246,551.926125 605.321955,514.587225"></path>
                <path fill="#AAD5FF" id="Fill-84" d="M622.532343,506.683955 C624.306271,516.509245 617.780876,525.912551 607.956745,527.686561 C598.132614,529.461272 588.729747,522.935572 586.95512,513.110982 C585.180492,503.286392 591.706587,493.883086 601.530718,492.108376 C611.354849,490.333666 620.757716,496.859365 622.532343,506.683955"></path>
                <path fill="#AAD5FF" id="Fill-86" d="M719.891867,528.949293 C721.665795,538.773883 715.1404,548.177189 705.316269,549.951899 C695.492138,551.72591 686.089271,545.20021 684.314643,535.37562 C682.540716,525.55103 689.066111,516.147724 698.890242,514.373014 C708.714372,512.598304 718.117239,519.124703 719.891867,528.949293"></path>
                <path fill="#C3E4FF" id="Fill-88" d="M416.335388,539.080818 C415.761573,539.839409 378.88347,588.273048 377.938774,626.224278 L348.156381,626.224278 C352.145095,613.868487 369.436517,568.663757 416.335388,539.080818"></path>
                <path fill="#C3E4FF" id="Fill-90" d="M332.118115,626.258009 L308.38877,626.258009 C303.696084,608.42063 289.487867,597.299298 289.487867,597.299298 C289.487867,597.299298 317.702765,602.821474 332.118115,626.258009"></path>
                <path fill="#D6EEFF" id="Fill-92" d="M768.14893,579.23903 C768.668163,579.894049 779.775679,605.4482 778.454506,629.670618 L817.571187,629.670618 C818.317147,616.43027 826.714438,597.480898 826.714438,597.480898 C826.714438,597.480898 809.489494,604.455174 797.84665,624.375179 C797.84665,624.375179 789.035093,588.437992 768.14893,579.23903"></path>
                <path fill="#D6EEFF" id="Fill-94" d="M706.833239,590.69228 C706.367889,591.591532 696.953826,607.906832 694.474526,626.98007 L657.183555,630.806614 C654.643375,613.850292 649.159944,604.410596 649.159944,604.410596 C649.159944,604.410596 664.818792,608.96354 673.177596,622.279467 C673.177596,622.279467 682.864571,601.793318 706.833239,590.69228"></path>
                <path fill="#E8F6FF" id="Fill-96" d="M209.666226,460.697611 C209.666226,525.597008 182.822885,584.542447 122.04749,584.542447 C61.2720948,584.542447 34.428754,525.597008 34.428754,460.697611 C34.428754,384.564913 80.3549391,308.860497 122.04749,308.860497 C163.740041,308.860497 209.666226,384.564913 209.666226,460.697611"></path>
                <line stroke-linecap="square" stroke-width="10.5" stroke="#D6EEFF" id="Stroke-98" y2="631.527905" x2="122.04749" y1="446.701192" x1="122.04749"></line>
                <line stroke-linecap="square" stroke-width="7" stroke="#D6EEFF" id="Stroke-100" y2="442.6132" x2="171.247219" y1="469.242254" x1="147.531869"></line>
                <line stroke-linecap="square" stroke-width="7" stroke="#D6EEFF" id="Stroke-102" y2="497.330056" x2="72.8477607" y1="523.959809" x1="96.5631106"></line>
                <line stroke-linecap="square" stroke-width="7" stroke="#D6EEFF" id="Stroke-104" y2="443.706648" x2="72.8477607" y1="470.336402" x1="96.5631106"></line>
                <g transform="translate(0.000000, 630.526062)" id="Group-109">
                    <line fill="#E8F6FF" id="Fill-106" y2="1.00170367" x2="0.000279909707" y1="1.00170367" x1="1225.57373"></line>
                    <line stroke-linecap="round" stroke-width="14" stroke="#D6EEFF" id="Stroke-108" y2="1.00170367" x2="0.000279909707" y1="1.00170367" x1="1225.57373"></line>
                </g>
            </g>
        </g>
    </g>
</svg>